<svg width="65" height="65" viewBox="0 0 65 65" fill="none" xmlns="http://www.w3.org/2000/svg">
<g clip-path="url(#clip0_2_20)">
<path d="M0 65V0H65V65H0Z" fill="#F0A49F"/>
<path d="M21.385 5.33C12.5301 5.33 5.33 12.53 5.33 21.385V43.615C5.33 52.4699 12.5301 59.67 21.385 59.67H43.615C52.4699 59.67 59.67 52.4699 59.67 43.615V21.385C59.67 12.53 52.4699 5.33 43.615 5.33H21.385ZM47.32 15.21C48.6785 15.21 49.79 16.3215 49.79 17.68C49.79 19.0385 48.6785 20.15 47.32 20.15C45.9615 20.15 44.85 19.0385 44.85 17.68C44.85 16.3215 45.9615 15.21 47.32 15.21ZM32.5 18.915C39.9964 18.915 46.085 25.0035 46.085 32.5C46.085 39.9964 39.9964 46.085 32.5 46.085C25.0035 46.085 18.915 39.9964 18.915 32.5C18.915 25.0035 25.0035 18.915 32.5 18.915ZM32.5 21.385C26.3744 21.385 21.385 26.3744 21.385 32.5C21.385 38.6256 26.3744 43.615 32.5 43.615C38.6256 43.615 43.615 38.6256 43.615 32.5C43.615 26.3744 38.6256 21.385 32.5 21.385Z" fill="black"/>
</g>
<defs>
<clipPath id="clip0_2_20">
<rect width="65" height="65" rx="15" fill="white"/>
</clipPath>
</defs>
</svg>
