<svg width="65" height="65" viewBox="0 0 65 65" fill="none" xmlns="http://www.w3.org/2000/svg">
<g clip-path="url(#clip0_2_14)">
<path d="M0 65V0H65V65H0Z" fill="#F0A49F"/>
<path fill-rule="evenodd" clip-rule="evenodd" d="M49.7736 15.2423C45.1874 10.6561 39.0936 8.125 32.6032 8.125C19.2255 8.125 8.33131 19.0112 8.33131 32.3889C8.32337 36.6656 9.44216 40.8392 11.5686 44.5209L8.12502 57.0972L20.9949 53.7171C24.5337 55.6531 28.5327 56.6687 32.5952 56.6766H32.6032C45.9809 56.6766 56.8671 45.7904 56.875 32.4048C56.875 25.9222 54.3518 19.8285 49.7736 15.2423ZM32.6031 52.5745H32.5952C28.977 52.5745 25.4223 51.5985 22.3279 49.7656L21.5899 49.3292L13.949 51.3288L15.9881 43.8861L15.5121 43.1244C13.4888 39.9109 12.4255 36.1975 12.4255 32.3889C12.4255 21.2726 21.4789 12.2272 32.6111 12.2272C37.9986 12.2272 43.0609 14.3299 46.8695 18.1385C50.6781 21.955 52.7728 27.0172 52.7728 32.4048C52.7728 43.5291 43.7195 52.5745 32.6031 52.5745ZM43.6639 37.467C43.0609 37.1655 40.0775 35.6976 39.5221 35.4993C38.9667 35.293 38.562 35.1977 38.1574 35.8008C37.7527 36.4117 36.5942 37.7765 36.2372 38.1812C35.8881 38.5779 35.531 38.6334 34.928 38.3319C34.317 38.0304 32.3651 37.3877 30.0482 35.3168C28.2471 33.714 27.0252 31.7224 26.676 31.1194C26.319 30.5084 26.6364 30.1831 26.9379 29.8816C27.2156 29.6118 27.5488 29.1754 27.8504 28.8184C28.1519 28.4693 28.255 28.2154 28.4613 27.8107C28.6597 27.406 28.5565 27.049 28.4058 26.7475C28.255 26.4459 27.041 23.4546 26.5332 22.2406C26.0413 21.0584 25.5414 21.225 25.1685 21.2012C24.8194 21.1853 24.4147 21.1853 24.0101 21.1853C23.6054 21.1853 22.9468 21.3361 22.3914 21.947C21.836 22.5501 20.2729 24.018 20.2729 27.0014C20.2729 29.9848 22.447 32.873 22.7485 33.2776C23.05 33.6743 27.0252 39.7998 33.111 42.4262C34.5551 43.053 35.6818 43.4259 36.5626 43.7036C38.0146 44.1638 39.3397 44.1004 40.387 43.9496C41.5534 43.775 43.9734 42.4817 44.4813 41.0614C44.9811 39.6491 44.9811 38.4351 44.8304 38.1812C44.6796 37.9273 44.2749 37.7765 43.6639 37.467Z" fill="black"/>
</g>
<defs>
<clipPath id="clip0_2_14">
<rect width="65" height="65" rx="15" fill="white"/>
</clipPath>
</defs>
</svg>
